<svg xmlns="http://www.w3.org/2000/svg" viewBox="0 0 500 500"><path fill="#e4b49c" stroke="#e4b49c" d="M216.067 45.109c-11.788 9.331-21.994 16.749-22.68 16.486-.686-.263-10.617-6.722-22.067-14.352-11.451-7.63-21.451-14.25-22.222-14.711-1.194-.714-1.322 3.242-.863 26.681l.539 27.519-20.887 5.799c-11.488 3.19-20.881 6.063-20.874 6.385.007.321 8.302 10.012 18.434 21.536 10.132 11.524 18.133 21.424 17.782 22-.352.576-4.414 6.82-9.026 13.874s-8.203 13.008-7.98 13.23c.223.223 8.16.71 17.637 1.083 11.862.466 17.082 1.018 16.75 1.769-6.254 14.15-7.937 18.547-9.639 25.184-1.116 4.349-2.445 11.733-2.954 16.408-.509 4.675-1.395 10.069-1.969 11.986-6.468 21.606-7.935 72.716-2.784 97.014 16.516 77.919 62.21 126.056 118.579 124.919l9.405-.19 6.512 12.635c3.582 6.95 6.789 12.631 7.126 12.626.338-.006 4.987-8.443 10.331-18.75l9.718-18.74 6.282-3.962c14.279-9.004 32.985-30.494 43.992-50.538 22.178-40.383 29.492-95.834 19.194-145.5-1.368-6.6-3.146-16.72-3.95-22.489-7.848-56.29-53.604-98.915-106.27-98.998-7.451-.012-8.263-.195-7.794-1.763.289-.963 3.244-10.382 6.568-20.933C266.281 80.766 269 71.478 269 70.677c0-1.192-2.118-.923-11.62 1.479-6.392 1.615-11.783 2.775-11.98 2.577-.198-.198-1.58-10.793-3.071-23.546-1.651-14.115-3.126-23.159-3.771-23.115-.582.04-10.703 7.706-22.491 17.037M193.5 105.524l-30 16.409-2.249 6.784c-3.852 11.618-3.843 11.773 1.273 22.783l4.647 10 3.139-4c18.52-23.597 44.986-39.063 72.998-42.659 5.056-.649 9.348-1.298 9.539-1.441.191-.144-3.112-4.23-7.341-9.081-7.085-8.128-16.92-15.25-21.006-15.213-.55.005-14.5 7.394-31 16.418" fill-rule="evenodd"/><path fill="#cba48f" stroke="#cba48f" d="M216.754 45.007C204.841 54.353 194.615 62 194.03 62c-.586 0-10.611-6.412-22.28-14.25-11.668-7.837-21.842-14.642-22.608-15.12-1.186-.74-1.284 3.24-.657 26.647l.737 27.517-5.361 1.52c-2.949.835-12.336 3.444-20.861 5.796-8.525 2.353-15.659 4.387-15.853 4.52-.194.134 8.035 9.753 18.288 21.376l18.642 21.134-2.23 3.68c-1.227 2.024-5.294 8.277-9.039 13.897-3.744 5.619-6.808 10.456-6.808 10.75 0 .293 3.756.533 8.346.533 13.935 0 26.809 1.179 26.246 2.403-7.354 15.983-11.404 30.284-12.276 43.347l-.618 9.25h4.111c4.102 0 4.144.039 18.351 17.158l14.24 17.158 1.726-3.908c.949-2.149 1.759-4.47 1.8-5.158.161-2.713 2.249-.835 10.207 9.179 4.558 5.736 8.549 10.268 8.869 10.07.32-.198 5.063-10.289 10.54-22.424l9.958-22.064 12 .008 12 .009 10.534 20.099c5.794 11.055 10.969 20.024 11.5 19.932.531-.092 5.689-9.143 11.462-20.113L295.493 225h12.288l6.315 17.69 6.315 17.689 11.548-12.168 11.547-12.168 3.497 6.679c1.923 3.673 3.947 6.8 4.497 6.949.55.149 4.375-4.75 8.5-10.887 4.125-6.138 8.323-12.011 9.33-13.051 3.97-4.106-1.426-31.998-9.331-48.233-18.456-37.907-57.62-63.478-97.249-63.497-3.712-.002-6.75-.282-6.75-.622 0-.341 2.956-10.06 6.568-21.599 3.613-11.538 6.332-21.216 6.042-21.505-.289-.29-5.514.711-11.61 2.223-6.096 1.512-11.341 2.493-11.655 2.178-.314-.314-1.706-10.608-3.092-22.875-1.387-12.266-2.818-22.637-3.18-23.046-.363-.409-10.406 6.904-22.319 16.25m-22.755 60.106c-16.225 8.862-29.862 16.448-30.306 16.856-.443.409-2.087 4.864-3.652 9.9l-2.847 9.156 5.046 10.396 5.046 10.396 4.076-5.158c18.266-23.122 42.127-36.918 71.794-41.51l10.657-1.649-8.292-9.479c-7.734-8.84-15.754-14.541-21.022-14.944-.551-.043-14.276 7.174-30.5 16.036m-6.544 170.144c-.27.704-.371 12.297-.223 25.762l.268 24.481 37.75.262 37.75.262V305h20v21.024l37.75-.262 37.75-.262v-51l-37.75-.262-37.75-.262V295h-19.93l-.285-10.25-.285-10.25-37.277-.262c-29.572-.208-37.378.002-37.768 1.019M192 300v21h67v-42h-67v21m95 0v21h68v-42h-68v21m-2 93v5h22v-10h-22v5m-25 32.115c0 .614 4.68 9.951 10.4 20.75 5.72 10.799 11.277 21.389 12.348 23.534l1.948 3.898 4.016-7.398C295.411 453.556 310 425.26 310 424.61c0-.336-11.25-.61-25-.61-17.725 0-25 .325-25 1.115" fill-rule="evenodd"/><path fill="#040404" stroke="#040404" d="m216.26 45.663-22.239 17.453-22.337-15.058C159.399 39.776 149.144 33 148.896 33c-.249 0-.44 12.231-.424 27.181l.028 27.181-20.242 5.569c-11.132 3.063-20.245 5.848-20.25 6.189-.004.341 7.892 9.566 17.547 20.5 9.655 10.934 17.778 20.379 18.052 20.988.274.61-3.567 7.36-8.537 15l-9.035 13.892 17.733.559c9.752.307 17.851.644 17.996.75.146.105-1.029 2.779-2.61 5.941-5.83 11.66-9.547 25.527-10.768 40.174l-.674 8.076H156.553l13.918 17c7.654 9.35 14.032 17 14.172 17 .14 0 1.035-2.475 1.989-5.5.953-3.025 1.989-5.497 2.301-5.494.312.003 4.317 4.731 8.9 10.507 4.584 5.776 8.662 10.299 9.064 10.051.401-.248 5.146-10.152 10.543-22.008L227.253 225h24.641l9.986 19.25c5.492 10.588 10.362 19.861 10.822 20.608.576.934 4.159-4.998 11.479-19l10.643-20.358H308.393l5.752 16c3.163 8.8 5.953 16.45 6.199 17 .246.55 5.572-4.367 11.835-10.926l11.388-11.927 3.771 7.177c2.074 3.947 3.941 7.176 4.148 7.176.208 0 4.459-5.879 9.446-13.065 10.355-14.918 10.666-16.289 7.499-32.984-9.607-50.643-56.373-89.888-107.181-89.945-2.887-.003-5.25-.435-5.25-.958 0-.524 2.934-10.265 6.519-21.648 3.586-11.382 6.385-20.829 6.221-20.993-.165-.165-5.553.955-11.975 2.488l-11.676 2.788-.513-2.591c-.282-1.426-1.459-11.367-2.614-22.092-1.156-10.725-2.408-20.24-2.782-21.145-.544-1.317-5.115 1.835-22.92 15.808m-22.76 59.449c-15.95 8.785-29.514 16.517-30.143 17.181-.629.664-2.279 5.206-3.667 10.094l-2.523 8.887 4.96 10.595 4.96 10.594 2.66-3.481c18.293-23.944 44.015-39.156 73.724-43.6 5.485-.82 10.088-1.607 10.229-1.749.142-.142-3.346-4.393-7.751-9.446-7.94-9.109-16.823-15.306-21.67-15.118-.979.038-14.829 7.257-30.779 16.043M188 300v25h75v-20h20v20h75v-50h-75v20h-20v-20h-75v25m3.452-20.736c-.272.709-.373 10.503-.223 21.763l.271 20.473 34.27.263 34.269.263-.269-21.763-.27-21.763-33.776-.263c-26.852-.21-33.878.001-34.272 1.027M287 300v22.026l34.25-.263 34.25-.263v-43l-34.25-.263-34.25-.263V300m-2 93v5h21v-10h-21v5m-15.62 50.25c13.513 25.896 15.056 28.732 15.64 28.742.286.004 3.077-5.054 6.201-11.242 3.125-6.187 8.626-16.762 12.225-23.5l6.543-12.25h-50.132l9.523 18.25" fill-rule="evenodd"/></svg>